<svg xmlns="http://www.w3.org/2000/svg" xmlns:xlink="http://www.w3.org/1999/xlink" preserveAspectRatio="xMidYMid" width="75" height="85" viewBox="0 0 75 85">
  <defs>
  </defs>
  <path d="M39.013,37.558 C39.013,37.558 38.324,37.986 37.438,37.953 C36.551,37.921 35.468,37.558 35.468,37.558 C35.468,37.558 1.245,20.386 1.245,20.386 C1.734,19.822 1.983,19.767 1.983,19.767 C1.983,19.767 35.074,0.791 35.074,0.791 C35.074,0.791 36.280,0.000 37.438,0.000 C38.595,0.000 39.407,0.791 39.407,0.791 C39.407,0.791 72.227,18.853 73.286,20.163 C73.325,20.211 73.359,20.257 73.397,20.305 C73.397,20.305 39.013,37.558 39.013,37.558 ZM35.468,39.930 C35.468,39.930 36.354,40.359 37.438,40.326 C38.521,40.293 39.013,39.930 39.013,39.930 C39.013,39.930 74.691,22.216 74.691,22.216 C74.801,22.413 74.862,22.535 74.862,22.535 C74.862,22.535 74.813,63.478 74.074,64.442 C73.335,65.406 71.316,66.419 71.316,66.419 C71.316,66.419 40.589,84.209 40.589,84.209 C40.589,84.209 38.742,85.025 37.438,85.000 C36.133,84.975 35.074,84.605 35.074,84.605 C35.074,84.605 1.983,65.233 1.983,65.233 C1.983,65.233 1.367,64.911 0.801,64.047 C0.235,63.182 0.013,62.465 0.013,62.465 C0.013,62.465 0.013,22.930 0.013,22.930 C0.013,22.930 0.029,22.646 0.165,22.216 C0.165,22.216 35.468,39.930 35.468,39.930 Z" fill="white"/>
</svg>
