<svg xmlns="http://www.w3.org/2000/svg" xmlns:xlink="http://www.w3.org/1999/xlink" preserveAspectRatio="xMidYMid" width="87" height="98" viewBox="0 0 87 98">
  <defs>
  </defs>
  <path d="M45.006,43.302 C45.006,43.302 44.210,43.796 43.188,43.758 C42.165,43.720 40.915,43.302 40.915,43.302 C40.915,43.302 1.427,23.503 1.427,23.503 C1.992,22.853 2.278,22.791 2.278,22.791 C2.278,22.791 40.460,0.912 40.460,0.912 C40.460,0.912 41.852,0.000 43.188,0.000 C44.523,0.000 45.460,0.912 45.460,0.912 C45.460,0.912 83.330,21.737 84.551,23.247 C84.597,23.303 84.635,23.355 84.679,23.410 C84.679,23.410 45.006,43.302 45.006,43.302 ZM40.915,46.037 C40.915,46.037 41.938,46.531 43.188,46.493 C44.437,46.455 45.006,46.037 45.006,46.037 C45.006,46.037 86.172,25.614 86.172,25.614 C86.299,25.841 86.369,25.981 86.369,25.981 C86.369,25.981 86.313,73.187 85.460,74.298 C84.608,75.409 82.278,76.577 82.278,76.577 C82.278,76.577 46.824,97.088 46.824,97.088 C46.824,97.088 44.693,98.028 43.188,98.000 C41.682,97.972 40.460,97.544 40.460,97.544 C40.460,97.544 2.278,75.209 2.278,75.209 C2.278,75.209 1.568,74.839 0.915,73.842 C0.261,72.845 0.006,72.019 0.006,72.019 C0.006,72.019 0.006,26.437 0.006,26.437 C0.006,26.437 0.012,26.114 0.174,25.610 C0.174,25.610 40.915,46.037 40.915,46.037 Z" fill="white"/>
</svg>
